<svg width="24" height="24" viewBox="0 0 24 24" fill="none" xmlns="http://www.w3.org/2000/svg">
<mask id="mask0_268_257" style="mask-type:luminance" maskUnits="userSpaceOnUse" x="0" y="0" width="24" height="24">
<path d="M24 0H0V24H24V0Z" fill="white"/>
</mask>
<g mask="url(#mask0_268_257)">
<path d="M13.1601 22.28H10.8301C9.87008 22.28 9.08008 21.49 9.08008 20.53V20.37C9.08008 19.41 9.87008 18.62 10.8301 18.62H13.1601C14.1201 18.62 14.9101 19.41 14.9101 20.37V20.53C14.9101 21.49 14.1201 22.28 13.1601 22.28ZM10.8301 20.12C10.6901 20.12 10.5801 20.23 10.5801 20.37V20.53C10.5801 20.67 10.6901 20.78 10.8301 20.78H13.1601C13.3001 20.78 13.4101 20.67 13.4101 20.53V20.37C13.4101 20.23 13.3001 20.12 13.1601 20.12H10.8301Z" fill="#F97316"/>
<path d="M12 20.11C11.71 20.11 11.44 19.94 11.31 19.66L6.98001 9.92997C6.81001 9.54997 6.98001 9.10997 7.36001 8.93997C7.74001 8.76997 8.18001 8.93997 8.35001 9.31997L12.68 19.05C12.85 19.43 12.68 19.87 12.3 20.04C12.2 20.08 12.1 20.1 12 20.1V20.11Z" fill="#F97316"/>
<path d="M7.06016 15.52C6.41016 15.52 5.80016 15.18 5.47016 14.58L1.61016 7.63998C1.22016 6.92998 1.13016 6.11998 1.38016 5.34998C1.62016 4.58998 2.15016 3.96998 2.87016 3.60998C6.09016 1.99998 10.8302 1.34998 15.2402 1.91998C15.6502 1.96998 15.9402 2.34998 15.8902 2.75998C15.8402 3.16998 15.4502 3.45998 15.0502 3.40998C10.9202 2.87998 6.51016 3.46998 3.54016 4.94998C3.19016 5.11998 2.93016 5.41998 2.82016 5.78998C2.70016 6.15998 2.74016 6.55998 2.94016 6.90998L6.79016 13.84C6.87016 13.99 7.05016 14.05 7.21016 13.99C9.85016 12.93 14.1602 12.93 16.8102 13.99C16.9602 14.05 17.1402 13.99 17.2202 13.85L18.8302 10.95C19.0302 10.59 19.4902 10.46 19.8502 10.66C20.2102 10.86 20.3402 11.32 20.1402 11.68L18.5302 14.58C18.1002 15.38 17.1102 15.73 16.2502 15.39C13.9402 14.46 10.0602 14.46 7.75016 15.39C7.52016 15.48 7.29016 15.52 7.06016 15.52Z" fill="#F97316"/>
<path d="M19.2101 9.21999C18.8001 9.21999 18.4501 8.93999 18.3701 8.53999L18.1201 7.45999C18.0001 6.95999 17.6101 6.55999 17.1101 6.44999L16.0201 6.19999C15.6301 6.11999 15.3501 5.76999 15.3501 5.35999C15.3501 4.94999 15.6301 4.59999 16.0301 4.51999L17.1101 4.26999C17.6101 4.15999 18.0101 3.75999 18.1201 3.25999L18.3701 2.15999C18.4501 1.76999 18.8001 1.48999 19.2101 1.48999C19.6201 1.48999 19.9701 1.76999 20.0501 2.16999L20.3001 3.24999C20.4201 3.74999 20.8101 4.14999 21.3101 4.25999L22.4001 4.50999C22.7901 4.58999 23.0701 4.93999 23.0701 5.34999C23.0701 5.75999 22.7901 6.09999 22.4001 6.18999L21.3101 6.43999C20.8101 6.55999 20.4101 6.94999 20.3001 7.44999L20.0501 8.54999C19.9701 8.93999 19.6201 9.21999 19.2101 9.21999ZM18.3201 5.36999C18.6801 5.59999 18.9801 5.89999 19.2101 6.25999C19.4401 5.89999 19.7401 5.59999 20.1001 5.36999C19.7401 5.13999 19.4401 4.83999 19.2101 4.47999C18.9801 4.83999 18.6801 5.13999 18.3201 5.36999Z" fill="#F97316"/>
</g>
</svg>
